<svg width="24" height="24" viewBox="0 0 24 24" fill="none" xmlns="http://www.w3.org/2000/svg">
<path d="M11.289 23.287V20.335C11.289 20.1459 11.3641 19.9645 11.4978 19.8308C11.6315 19.6971 11.8129 19.622 12.002 19.622C12.1911 19.622 12.3725 19.6971 12.5062 19.8308C12.6399 19.9645 12.715 20.1459 12.715 20.335V23.287C12.715 23.4761 12.6399 23.6575 12.5062 23.7912C12.3725 23.9249 12.1911 24 12.002 24C11.8129 24 11.6315 23.9249 11.4978 23.7912C11.3641 23.6575 11.289 23.4761 11.289 23.287ZM19.479 20.483L17.392 18.397C17.323 18.3315 17.2678 18.2528 17.2297 18.1655C17.1916 18.0783 17.1713 17.9844 17.1701 17.8892C17.1689 17.794 17.1867 17.6996 17.2225 17.6114C17.2584 17.5232 17.3116 17.4432 17.3789 17.3759C17.4462 17.3086 17.5262 17.2554 17.6144 17.2196C17.7026 17.1837 17.797 17.1659 17.8922 17.1671C17.9874 17.1683 18.0813 17.1886 18.1685 17.2267C18.2558 17.2648 18.3345 17.32 18.4 17.389L20.485 19.478C20.6018 19.6148 20.6627 19.7906 20.6553 19.9703C20.6479 20.15 20.5729 20.3203 20.4453 20.4471C20.3177 20.5738 20.1469 20.6476 19.9671 20.6537C19.7874 20.6598 19.6119 20.5978 19.476 20.48L19.477 20.481L19.479 20.483ZM3.517 20.483C3.45048 20.417 3.39769 20.3385 3.36166 20.252C3.32563 20.1655 3.30708 20.0727 3.30708 19.979C3.30708 19.8853 3.32563 19.7925 3.36166 19.706C3.39769 19.6195 3.45048 19.541 3.517 19.475L5.604 17.388C5.66955 17.319 5.74824 17.2638 5.83546 17.2257C5.92267 17.1876 6.01663 17.1673 6.1118 17.1661C6.20697 17.1649 6.30142 17.1827 6.38959 17.2185C6.47775 17.2544 6.55785 17.3076 6.62515 17.3749C6.69245 17.4422 6.74559 17.5222 6.78145 17.6104C6.81731 17.6986 6.83515 17.793 6.83392 17.8882C6.8327 17.9834 6.81243 18.0773 6.77431 18.1645C6.7362 18.2518 6.68101 18.3305 6.612 18.396L4.525 20.482C4.459 20.5485 4.38049 20.6013 4.29398 20.6373C4.20748 20.6734 4.1147 20.6919 4.021 20.6919C3.9273 20.6919 3.83452 20.6734 3.74802 20.6373C3.66151 20.6013 3.583 20.5495 3.517 20.483ZM6.32 11.998C6.32 10.4908 6.91874 9.04528 7.98451 7.97951C9.05028 6.91374 10.4958 6.315 12.003 6.315C13.5102 6.315 14.9557 6.91374 16.0215 7.97951C17.0873 9.04528 17.686 10.4908 17.686 11.998C17.686 13.5052 17.0873 14.9507 16.0215 16.0165C14.9557 17.0823 13.5102 17.681 12.003 17.681C10.4958 17.681 9.05028 17.0823 7.98451 16.0165C6.91874 14.9507 6.32 13.5052 6.32 11.998ZM7.745 11.998C7.73271 12.5651 7.83379 13.1289 8.0423 13.6564C8.25081 14.1838 8.56257 14.6644 8.95927 15.0698C9.35597 15.4752 9.82963 15.7972 10.3525 16.0171C10.8753 16.237 11.4368 16.3503 12.004 16.3503C12.5712 16.3503 13.1327 16.237 13.6555 16.0171C14.1784 15.7972 14.652 15.4752 15.0487 15.0698C15.4454 14.6644 15.7572 14.1838 15.9657 13.6564C16.1742 13.1289 16.2753 12.5651 16.263 11.998C16.2389 10.8844 15.7796 9.82459 14.9835 9.04557C14.1874 8.26654 13.1178 7.8303 12.004 7.8303C10.8902 7.8303 9.82063 8.26654 9.02454 9.04557C8.22845 9.82459 7.76913 10.8844 7.745 11.998ZM20.336 12.711C20.2424 12.711 20.1497 12.6926 20.0631 12.6567C19.9766 12.6209 19.898 12.5684 19.8318 12.5022C19.7656 12.436 19.7131 12.3574 19.6773 12.2709C19.6414 12.1843 19.623 12.0916 19.623 11.998C19.623 11.9044 19.6414 11.8117 19.6773 11.7251C19.7131 11.6386 19.7656 11.56 19.8318 11.4938C19.898 11.4276 19.9766 11.3751 20.0631 11.3393C20.1497 11.3034 20.2424 11.285 20.336 11.285H23.288C23.3816 11.285 23.4743 11.3034 23.5609 11.3393C23.6474 11.3751 23.726 11.4276 23.7922 11.4938C23.8584 11.56 23.9109 11.6386 23.9467 11.7251C23.9826 11.8117 24.001 11.9044 24.001 11.998C24.001 12.0916 23.9826 12.1843 23.9467 12.2709C23.9109 12.3574 23.8584 12.436 23.7922 12.5022C23.726 12.5684 23.6474 12.6209 23.5609 12.6567C23.4743 12.6926 23.3816 12.711 23.288 12.711H20.336ZM0.713 12.711C0.619368 12.711 0.526652 12.6926 0.440147 12.6567C0.353642 12.6209 0.275041 12.5684 0.208833 12.5022C0.142625 12.436 0.0901055 12.3574 0.0542739 12.2709C0.0184423 12.1843 0 12.0916 0 11.998C0 11.9044 0.0184423 11.8117 0.0542739 11.7251C0.0901055 11.6386 0.142625 11.56 0.208833 11.4938C0.275041 11.4276 0.353642 11.3751 0.440147 11.3393C0.526652 11.3034 0.619368 11.285 0.713 11.285H3.666C3.75963 11.285 3.85235 11.3034 3.93885 11.3393C4.02536 11.3751 4.10396 11.4276 4.17017 11.4938C4.23638 11.56 4.28889 11.6386 4.32473 11.7251C4.36056 11.8117 4.379 11.9044 4.379 11.998C4.379 12.0916 4.36056 12.1843 4.32473 12.2709C4.28889 12.3574 4.23638 12.436 4.17017 12.5022C4.10396 12.5684 4.02536 12.6209 3.93885 12.6567C3.85235 12.6926 3.75963 12.711 3.666 12.711H0.713ZM17.39 6.608C17.3235 6.542 17.2707 6.46349 17.2347 6.37698C17.1986 6.29048 17.1801 6.1977 17.1801 6.104C17.1801 6.0103 17.1986 5.91752 17.2347 5.83102C17.2707 5.74451 17.3235 5.666 17.39 5.6L19.477 3.513C19.5425 3.44399 19.6212 3.3888 19.7085 3.35069C19.7957 3.31257 19.8896 3.2923 19.9848 3.29108C20.08 3.28985 20.1744 3.30769 20.2626 3.34355C20.3508 3.37941 20.4308 3.43255 20.4981 3.49985C20.5654 3.56715 20.6186 3.64725 20.6544 3.73541C20.6903 3.82358 20.7081 3.91803 20.7069 4.0132C20.7057 4.10837 20.6854 4.20233 20.6473 4.28954C20.6092 4.37676 20.554 4.45545 20.485 4.521L18.398 6.608C18.332 6.67452 18.2535 6.72731 18.167 6.76334C18.0805 6.79937 17.9877 6.81792 17.894 6.81792C17.8003 6.81792 17.7075 6.79937 17.621 6.76334C17.5345 6.72731 17.456 6.67452 17.39 6.608ZM5.602 6.608L3.517 4.523C3.44799 4.45745 3.3928 4.37876 3.35469 4.29154C3.31657 4.20433 3.2963 4.11037 3.29508 4.0152C3.29385 3.92003 3.31169 3.82558 3.34755 3.73741C3.38341 3.64925 3.43655 3.56915 3.50385 3.50185C3.57115 3.43455 3.65125 3.38141 3.73941 3.34555C3.82758 3.30969 3.92203 3.29185 4.0172 3.29308C4.11237 3.2943 4.20633 3.31457 4.29354 3.35268C4.38076 3.3908 4.45945 3.44599 4.525 3.515L6.612 5.602C6.68101 5.66755 6.7362 5.74624 6.77431 5.83346C6.81243 5.92067 6.8327 6.01463 6.83392 6.1098C6.83515 6.20497 6.81731 6.29942 6.78145 6.38759C6.74559 6.47575 6.69245 6.55585 6.62515 6.62315C6.55785 6.69045 6.47775 6.74359 6.38959 6.77945C6.30142 6.81531 6.20697 6.83315 6.1118 6.83192C6.01663 6.8307 5.92267 6.81043 5.83546 6.77232C5.74824 6.7342 5.66955 6.67901 5.604 6.61L5.602 6.608ZM11.287 3.664V0.713C11.287 0.523901 11.3621 0.342546 11.4958 0.208833C11.6295 0.0751194 11.8109 0 12 0C12.1891 0 12.3705 0.0751194 12.5042 0.208833C12.6379 0.342546 12.713 0.523901 12.713 0.713V3.665C12.713 3.8541 12.6379 4.03545 12.5042 4.16917C12.3705 4.30288 12.1891 4.378 12 4.378C11.8109 4.378 11.6295 4.30288 11.4958 4.16917C11.3621 4.03545 11.287 3.8531 11.287 3.664Z" fill="white"/>
</svg>
