<svg width="24" height="24" viewBox="0 0 24 24" fill="none" xmlns="http://www.w3.org/2000/svg">
<path d="M9.5 20C11.7167 20 13.6043 19.221 15.163 17.663C16.7217 16.105 17.5007 14.2173 17.5 12C17.5 9.78333 16.721 7.89567 15.163 6.337C13.605 4.77833 11.7173 3.99933 9.5 4H8.975C8.80833 4 8.65 4.01667 8.5 4.05C9.45 5.15 10.1877 6.37933 10.713 7.738C11.2383 9.09667 11.5007 10.5173 11.5 12C11.5 13.4833 11.2373 14.9043 10.712 16.263C10.1867 17.6217 9.44933 18.8507 8.5 19.95C8.65 19.9833 8.80833 20 8.975 20H9.5ZM9.5 22C8.61667 22 7.754 21.8877 6.912 21.663C6.07 21.4383 5.266 21.1007 4.5 20.65C6.05 19.75 7.271 18.5333 8.163 17C9.055 15.4667 9.50067 13.8 9.5 12C9.5 10.2 9.054 8.53333 8.162 7C7.27 5.46667 6.04933 4.25 4.5 3.35C5.26667 2.9 6.071 2.56267 6.913 2.338C7.755 2.11333 8.61733 2.00067 9.5 2C10.8833 2 12.1833 2.26267 13.4 2.788C14.6167 3.31333 15.675 4.02567 16.575 4.925C17.475 5.825 18.1877 6.88333 18.713 8.1C19.2383 9.31667 19.5007 10.6167 19.5 12C19.5 13.3833 19.2373 14.6833 18.712 15.9C18.1867 17.1167 17.4743 18.175 16.575 19.075C15.675 19.975 14.6167 20.6877 13.4 21.213C12.1833 21.7383 10.8833 22.0007 9.5 22Z" fill="white"/>
</svg>
