<svg width="222" height="54" viewBox="0 0 222 54" fill="none" xmlns="http://www.w3.org/2000/svg">
<g clip-path="url(#clip0_70014_42)">
<rect y="2" width="50" height="50" rx="4" fill="#F9F9FB"/>
<path d="M48 2H2C0.89375 2 0 2.89375 0 4V50C0 51.1063 0.89375 52 2 52H48C49.1063 52 50 51.1063 50 50V4C50 2.89375 49.1063 2 48 2ZM25.0687 27.3812L13.0688 37.4437C12.7438 37.7187 12.25 37.4875 12.25 37.0625V33.1437C12.25 33 12.3187 32.8563 12.4312 32.7625L19.2938 27L12.4312 21.2375C12.3738 21.1921 12.3276 21.1341 12.2961 21.068C12.2647 21.0019 12.2489 20.9294 12.25 20.8563V16.9375C12.25 16.5125 12.7438 16.2812 13.0688 16.5562L25.0687 26.6125C25.3125 26.8125 25.3125 27.1812 25.0687 27.3812ZM37.75 37.0625C37.75 37.3375 37.5375 37.5625 37.2812 37.5625H25.7188C25.4625 37.5625 25.25 37.3375 25.25 37.0625V34.0625C25.25 33.7875 25.4625 33.5625 25.7188 33.5625H37.2812C37.5375 33.5625 37.75 33.7875 37.75 34.0625V37.0625Z" fill="#395BC7"/>
</g>
<path d="M77.072 14.728V31.936C77.072 34.6 76.316 36.652 74.804 38.092C73.316 39.532 71.3 40.252 68.756 40.252C66.092 40.252 63.956 39.496 62.348 37.984C60.74 36.472 59.936 34.324 59.936 31.54H66.056C66.056 32.596 66.272 33.4 66.704 33.952C67.136 34.48 67.76 34.744 68.576 34.744C69.32 34.744 69.896 34.504 70.304 34.024C70.712 33.544 70.916 32.848 70.916 31.936V14.728H77.072ZM100.98 29.632C100.98 30.208 100.945 30.808 100.873 31.432H86.9405C87.0365 32.68 87.4325 33.64 88.1285 34.312C88.8485 34.96 89.7245 35.284 90.7565 35.284C92.2925 35.284 93.3605 34.636 93.9605 33.34H100.513C100.177 34.66 99.5645 35.848 98.6765 36.904C97.8125 37.96 96.7205 38.788 95.4005 39.388C94.0805 39.988 92.6045 40.288 90.9725 40.288C89.0045 40.288 87.2525 39.868 85.7165 39.028C84.1805 38.188 82.9805 36.988 82.1165 35.428C81.2525 33.868 80.8205 32.044 80.8205 29.956C80.8205 27.868 81.2405 26.044 82.0805 24.484C82.9445 22.924 84.1445 21.724 85.6805 20.884C87.2165 20.044 88.9805 19.624 90.9725 19.624C92.9165 19.624 94.6445 20.032 96.1565 20.848C97.6685 21.664 98.8445 22.828 99.6845 24.34C100.549 25.852 100.98 27.616 100.98 29.632ZM94.6805 28.012C94.6805 26.956 94.3205 26.116 93.6005 25.492C92.8805 24.868 91.9805 24.556 90.9005 24.556C89.8685 24.556 88.9925 24.856 88.2725 25.456C87.5765 26.056 87.1445 26.908 86.9765 28.012H94.6805ZM103.004 29.92C103.004 27.856 103.388 26.044 104.156 24.484C104.948 22.924 106.016 21.724 107.36 20.884C108.704 20.044 110.204 19.624 111.86 19.624C113.276 19.624 114.512 19.912 115.568 20.488C116.648 21.064 117.476 21.82 118.052 22.756V19.912H124.208V40H118.052V37.156C117.452 38.092 116.612 38.848 115.532 39.424C114.476 40 113.24 40.288 111.824 40.288C110.192 40.288 108.704 39.868 107.36 39.028C106.016 38.164 104.948 36.952 104.156 35.392C103.388 33.808 103.004 31.984 103.004 29.92ZM118.052 29.956C118.052 28.42 117.62 27.208 116.756 26.32C115.916 25.432 114.884 24.988 113.66 24.988C112.436 24.988 111.392 25.432 110.528 26.32C109.688 27.184 109.268 28.384 109.268 29.92C109.268 31.456 109.688 32.68 110.528 33.592C111.392 34.48 112.436 34.924 113.66 34.924C114.884 34.924 115.916 34.48 116.756 33.592C117.62 32.704 118.052 31.492 118.052 29.956ZM140.902 19.696C143.254 19.696 145.126 20.464 146.518 22C147.934 23.512 148.642 25.6 148.642 28.264V40H142.522V29.092C142.522 27.748 142.174 26.704 141.478 25.96C140.782 25.216 139.846 24.844 138.67 24.844C137.494 24.844 136.558 25.216 135.862 25.96C135.166 26.704 134.818 27.748 134.818 29.092V40H128.662V19.912H134.818V22.576C135.442 21.688 136.282 20.992 137.338 20.488C138.394 19.96 139.582 19.696 140.902 19.696Z" fill="#395BC7"/>
<path d="M162.388 14.728C165.052 14.728 167.38 15.256 169.372 16.312C171.364 17.368 172.9 18.856 173.98 20.776C175.084 22.672 175.636 24.868 175.636 27.364C175.636 29.836 175.084 32.032 173.98 33.952C172.9 35.872 171.352 37.36 169.336 38.416C167.344 39.472 165.028 40 162.388 40H152.92V14.728H162.388ZM161.992 34.672C164.32 34.672 166.132 34.036 167.428 32.764C168.724 31.492 169.372 29.692 169.372 27.364C169.372 25.036 168.724 23.224 167.428 21.928C166.132 20.632 164.32 19.984 161.992 19.984H159.076V34.672H161.992ZM198.012 29.632C198.012 30.208 197.976 30.808 197.904 31.432H183.972C184.068 32.68 184.464 33.64 185.16 34.312C185.88 34.96 186.756 35.284 187.788 35.284C189.324 35.284 190.392 34.636 190.992 33.34H197.544C197.208 34.66 196.596 35.848 195.708 36.904C194.844 37.96 193.752 38.788 192.432 39.388C191.112 39.988 189.636 40.288 188.004 40.288C186.036 40.288 184.284 39.868 182.748 39.028C181.212 38.188 180.012 36.988 179.148 35.428C178.284 33.868 177.852 32.044 177.852 29.956C177.852 27.868 178.272 26.044 179.112 24.484C179.976 22.924 181.176 21.724 182.712 20.884C184.248 20.044 186.012 19.624 188.004 19.624C189.948 19.624 191.676 20.032 193.188 20.848C194.7 21.664 195.876 22.828 196.716 24.34C197.58 25.852 198.012 27.616 198.012 29.632ZM191.712 28.012C191.712 26.956 191.352 26.116 190.632 25.492C189.912 24.868 189.012 24.556 187.932 24.556C186.9 24.556 186.024 24.856 185.304 25.456C184.608 26.056 184.176 26.908 184.008 28.012H191.712ZM210.295 34.24L214.651 19.912H221.203L214.075 40H206.479L199.351 19.912H205.939L210.295 34.24Z" fill="#8B8D98"/>
<defs>
<clipPath id="clip0_70014_42">
<rect y="2" width="50" height="50" rx="4" fill="white"/>
</clipPath>
</defs>
</svg>
